<?xml version="1.0" standalone="no"?>
<!DOCTYPE svg PUBLIC "-//W3C//DTD SVG 20010904//EN"
 "http://www.w3.org/TR/2001/REC-SVG-20010904/DTD/svg10.dtd">
<svg version="1.0" xmlns="http://www.w3.org/2000/svg"
 width="219.000000pt" height="146.000000pt" viewBox="0 0 219.000000 146.000000"
 preserveAspectRatio="xMidYMid meet">
<metadata>
Created by potrace 1.16, written by Peter Selinger 2001-2019
</metadata>
<g transform="translate(0.000000,146.000000) scale(0.100000,-0.100000)"
fill="#000000" stroke="none">
<path d="M793 681 c-71 -44 -78 -92 -23 -155 17 -18 30 -35 30 -37 0 -5 -214
8 -255 15 -16 2 -57 8 -90 12 -37 4 -73 15 -95 30 -39 27 -64 29 -99 10 l-24
-13 47 -28 c56 -32 53 -35 -54 -60 -41 -9 -81 -24 -88 -33 -20 -26 6 -93 44
-111 28 -12 45 -7 103 32 32 22 61 32 110 37 36 5 107 14 157 21 82 11 97 10
140 -5 82 -29 146 -38 222 -33 41 3 76 8 79 10 2 3 7 24 10 47 6 40 5 42 -16
35 -12 -3 -41 -3 -63 0 l-42 7 27 14 c51 27 48 105 -6 176 -38 50 -68 57 -114
29z"/>
<path d="M1814 523 l-70 -4 -13 -61 c-9 -46 -10 -63 -1 -68 13 -8 192 -30 245
-30 47 0 75 37 75 99 0 26 -5 52 -12 59 -12 12 -57 13 -224 5z"/>
<path d="M1261 477 c-10 -13 -41 -81 -41 -92 0 -8 234 -6 247 3 8 5 9 20 1 55
l-10 47 -93 0 c-65 0 -96 -4 -104 -13z"/>
</g>
</svg>
